<svg width="52" height="40" viewBox="0 0 52 40" fill="none" xmlns="http://www.w3.org/2000/svg"><path d="M44.202 32.935c0 2.86-1.733 5.2-3.9 5.2s-3.9-2.34-3.9-5.2c0-2.86 1.733-5.2 3.9-5.2s3.9 2.34 3.9 5.2zm-31.114 0c0 2.86-1.734 5.2-3.9 5.2-2.167 0-3.9-2.34-3.9-5.2 0-2.86 1.733-5.2 3.9-5.2 2.166 0 3.9 2.34 3.9 5.2z" fill="#FECC00"/><path d="M50.27 16.467h-5.201l-7.194-7.973c-.347-.434-.953-.694-1.474-.694h-9.533V3.38A2.515 2.515 0 0024.354.866H5.98A2.515 2.515 0 003.466 3.38v19.154h23.402v10.401h9.534c0-2.86 2.34-5.2 5.2-5.2 2.86 0 5.2 2.34 5.2 5.2h3.207c.607 0 1.127-.52 1.127-1.127V18.114c0-.52-.52-1.3-.867-1.647z" fill="#FED100"/><path d="M27.735 23.401H0V3.381C0 1.472 1.473 0 3.38 0h21.061c1.82 0 3.294 1.473 3.294 3.38v20.021zM1.733 21.668h24.268V3.38c0-.866-.693-1.647-1.646-1.647H3.38c-.953 0-1.647.694-1.647 1.647v18.288zm39.869 17.334a6.03 6.03 0 01-6.067-6.067 6.03 6.03 0 016.067-6.067 6.03 6.03 0 016.067 6.067 6.03 6.03 0 01-6.067 6.067zm0-10.4a4.292 4.292 0 00-4.334 4.333 4.291 4.291 0 004.334 4.334 4.291 4.291 0 004.334-4.334 4.292 4.292 0 00-4.334-4.334zm-31.201 10.4a6.03 6.03 0 01-6.067-6.067 6.03 6.03 0 016.067-6.067 6.03 6.03 0 016.067 6.067 6.03 6.03 0 01-6.067 6.067zm0-10.4a4.292 4.292 0 00-4.334 4.333 4.291 4.291 0 004.334 4.334 4.291 4.291 0 004.334-4.334 4.292 4.292 0 00-4.334-4.334zm40.302-5.201H35.97c-.52 0-.867-.346-.867-.866s.347-.867.867-.867h14.734c.52 0 .867.347.867.867s-.347.866-.867.866z" fill="#333"/><path d="M13.867 15.6h-13c-.52 0-.867-.346-.867-.866s.347-.867.867-.867h13c.52 0 .867.347.867.867s-.347.867-.867.867zM10.4 11.267H.868c-.52 0-.867-.347-.867-.867s.347-.866.867-.866H10.4c.52 0 .866.346.866.866s-.346.867-.866.867zm38.83 22.535h-3.294v-.867a4.291 4.291 0 00-4.334-4.333 4.291 4.291 0 00-4.334 4.333v.867H26.001V6.934h10.66c1.214 0 2.254.52 3.034 1.473l5.72 7.194.087.087h3.64c1.56 0 2.774 1.3 2.774 2.773v12.567c.087 1.474-1.213 2.774-2.687 2.774zm-1.648-1.733h1.56c.607 0 1.04-.52 1.04-1.127v-12.48c0-.608-.52-1.041-1.04-1.041h-3.64c-.606 0-1.126-.26-1.473-.693l-5.72-7.194c-.347-.607-.954-.867-1.647-.867h-8.927v23.401h7.887c.433-2.946 2.947-5.2 5.98-5.2 3.034 0 5.547 2.254 5.98 5.2z" fill="#333"/><path d="M27.735 33.802h-13v-.867a4.292 4.292 0 00-4.334-4.333 4.291 4.291 0 00-4.334 4.333v.867H2.6c-1.473 0-2.6-1.127-2.6-2.6v-9.534h27.735v12.134zM16.38 32.069H26V23.4H1.733v7.8c0 .52.347.867.867.867h1.82c.434-2.946 2.947-5.2 5.98-5.2 3.034 0 5.547 2.254 5.98 5.2z" fill="#333"/><path d="M12.134 32.935c0 .953-.78 1.733-1.734 1.733-.953 0-1.733-.78-1.733-1.733 0-.953.78-1.734 1.733-1.734.954 0 1.734.78 1.734 1.734zm31.202 0c0 .953-.78 1.733-1.733 1.733-.954 0-1.734-.78-1.734-1.733 0-.953.78-1.734 1.733-1.734.954 0 1.734.78 1.734 1.734zm1.474-18.201H33.541a2.33 2.33 0 01-2.34-2.34v-5.46h5.46c1.214 0 2.254.52 3.034 1.473l5.113 6.327zM32.934 8.667v3.727c0 .347.26.607.607.607h7.714l-2.86-3.554c-.434-.52-1.04-.78-1.734-.78h-3.727z" fill="#333"/></svg>